solid moldify_demo_part
  facet normal 0 0 -1
    outer loop
      vertex -17 -12 -6
      vertex 17 12 -6
      vertex 17 -12 -6
    endloop
  endfacet
  facet normal 0 0 -1
    outer loop
      vertex -17 -12 -6
      vertex -17 12 -6
      vertex 17 12 -6
    endloop
  endfacet
  facet normal 0 0 1
    outer loop
      vertex -17 -12 6
      vertex 17 -12 6
      vertex 17 12 6
    endloop
  endfacet
  facet normal 0 0 1
    outer loop
      vertex -17 -12 6
      vertex 17 12 6
      vertex -17 12 6
    endloop
  endfacet
  facet normal 0 -1 0
    outer loop
      vertex -17 -12 -6
      vertex 17 -12 -6
      vertex 17 -12 6
    endloop
  endfacet
  facet normal 0 -1 0
    outer loop
      vertex -17 -12 -6
      vertex 17 -12 6
      vertex -17 -12 6
    endloop
  endfacet
  facet normal 0 1 0
    outer loop
      vertex -17 12 -6
      vertex 17 12 6
      vertex 17 12 -6
    endloop
  endfacet
  facet normal 0 1 0
    outer loop
      vertex -17 12 -6
      vertex -17 12 6
      vertex 17 12 6
    endloop
  endfacet
  facet normal -1 0 0
    outer loop
      vertex -17 -12 -6
      vertex -17 -12 6
      vertex -17 12 6
    endloop
  endfacet
  facet normal -1 0 0
    outer loop
      vertex -17 -12 -6
      vertex -17 12 6
      vertex -17 12 -6
    endloop
  endfacet
  facet normal 1 0 0
    outer loop
      vertex 17 -12 -6
      vertex 17 12 -6
      vertex 17 12 6
    endloop
  endfacet
  facet normal 1 0 0
    outer loop
      vertex 17 -12 -6
      vertex 17 12 6
      vertex 17 -12 6
    endloop
  endfacet
endsolid moldify_demo_part

